<?xml version="1.0" encoding="UTF-8"?>
<svg width="318px" height="53px" viewBox="0 0 318 53" version="1.1" xmlns="http://www.w3.org/2000/svg" xmlns:xlink="http://www.w3.org/1999/xlink">
    <!-- Generator: Sketch 49 (51002) - http://www.bohemiancoding.com/sketch -->
    <title>SGS_Logo</title>
    <desc>Created with Sketch.</desc>
    <defs></defs>
    <g id="Style-Guide" stroke="none" stroke-width="1" fill="none" fill-rule="evenodd">
        <g id="Branding" transform="translate(-99.000000, -239.000000)">
            <g id="SGS_Logo" transform="translate(99.000000, 239.000000)">
                <path d="M8.846,12.058 C8.846,20.758 31.466,13.624 31.466,30.038 C31.466,36.998 25.086,41.348 15.632,41.348 C5.772,41.348 0.03,36.998 0.03,29.11 L8.034,29.11 C8.034,32.706 10.76,34.678 16.038,34.678 C20.794,34.678 23.52,33.054 23.52,30.038 C23.52,20.932 0.842,28.066 0.842,12.232 C0.842,5.446 6.932,0.806 15.98,0.806 C25.202,0.806 30.944,5.33 30.944,12.928 L22.94,12.928 C22.882,9.158 20.33,7.476 15.864,7.476 C11.05,7.476 8.846,9.1 8.846,12.058 Z M90.308,20.12 L107.766,20.12 L107.766,41 L102.024,41 L102.024,35.084 C99.588,38.854 95.47,41.348 89.206,41.348 C77.954,41.348 70.588,33.344 70.588,20.99 C70.588,8.984 78.186,0.806 90.076,0.806 C100.806,0.806 106.606,6.954 107.418,15.132 L99.53,15.132 C98.834,11.304 96.108,7.766 90.076,7.766 C83.174,7.766 78.65,12.812 78.65,21.048 C78.65,29.458 82.942,34.388 89.67,34.388 C95.818,34.388 99.472,30.56 100.284,26.268 L90.308,26.268 L90.308,20.12 Z M126.428,12.29 C135.244,12.29 141.044,18.148 141.044,26.674 C141.044,35.2 135.244,41.29 126.428,41.29 C117.728,41.29 111.87,35.49 111.87,26.964 C111.87,18.38 117.728,12.29 126.428,12.29 Z M126.428,18.844 C122.484,18.844 119.874,22.034 119.874,26.848 C119.874,31.546 122.484,34.736 126.428,34.736 C130.488,34.736 132.982,31.546 132.982,26.848 C132.982,22.034 130.488,18.844 126.428,18.844 Z M152.92,12.058 C152.92,20.758 175.54,13.624 175.54,30.038 C175.54,36.998 169.16,41.348 159.706,41.348 C149.846,41.348 144.104,36.998 144.104,29.11 L152.108,29.11 C152.108,32.706 154.834,34.678 160.112,34.678 C164.868,34.678 167.594,33.054 167.594,30.038 C167.594,20.932 144.916,28.066 144.916,12.232 C144.916,5.446 151.006,0.806 160.054,0.806 C169.276,0.806 175.018,5.33 175.018,12.928 L167.014,12.928 C166.956,9.158 164.404,7.476 159.938,7.476 C155.124,7.476 152.92,9.1 152.92,12.058 Z M198.146,12.58 L206.092,12.58 L206.092,41 L198.436,41 L198.204,36.824 C196.58,39.492 193.796,41.29 189.852,41.29 C183.356,41.29 180.05,36.708 180.05,30.85 L180.05,12.58 L188.054,12.58 L188.054,28.994 C188.054,32.3 189.736,34.388 192.926,34.388 C195.884,34.388 198.146,32.01 198.146,28.472 L198.146,12.58 Z M227.306,12.29 C227.944,12.29 228.756,12.348 229.104,12.522 L229.046,20.294 C228.582,20.12 228.176,20.004 227.074,20.004 C223.478,20.004 220.578,22.266 220.114,26.326 L220.114,41 L212.168,41 L212.168,12.58 L219.824,12.58 L219.998,17.22 C221.332,14.32 223.594,12.29 227.306,12.29 Z M251.13,12.58 L259.192,12.58 L248.81,41 L239.936,41 L229.554,12.58 L238.08,12.58 L243.764,30.154 C244.054,30.908 244.286,32.01 244.576,33.46 L244.75,33.46 C244.982,32.01 245.214,30.908 245.446,30.154 L251.13,12.58 Z M287.482,27.022 L287.482,28.53 L267.472,28.53 C268.052,32.88 270.604,35.084 274.316,35.084 C278.144,35.084 279.536,33.112 280,31.604 L287.366,31.604 C286.438,36.534 282.494,41.29 273.91,41.29 C265.268,41.29 259.816,35.316 259.816,26.848 C259.816,18.264 265.79,12.29 274.026,12.29 C282.668,12.29 287.482,18.322 287.482,27.022 Z M274.084,18.206 C270.894,18.206 268.342,20.004 267.588,23.948 L280.058,23.948 C279.536,19.888 277.332,18.206 274.084,18.206 Z M309.508,12.58 L317.57,12.58 L307.188,41 L306.55,42.682 C303.882,49.99 300.866,53.006 294.486,53.006 C292.746,53.006 290.89,52.774 289.846,52.426 L290.31,45.814 C291.122,46.162 291.876,46.394 293.036,46.394 C295.588,46.394 297.734,45.582 298.662,42.508 L298.952,41.58 L288.164,12.58 L296.748,12.58 L302.316,30.328 C302.548,31.082 302.78,32.126 303.07,33.576 L303.244,33.576 C303.476,32.126 303.708,31.082 303.94,30.328 L309.508,12.58 Z" id="S-GoSurvey" fill="#333333"></path>
                <g id="Group-2" transform="translate(35.000000, 10.000000)">
                    <path d="M9.38583514,2.13238769 C16.4267467,-1.25054308 25.0118193,1.24329838 29.0887716,8.08244948 C30.2998906,10.1141205 31.0207617,12.396988 31.1980984,14.7499999 L16.670617,14.75 L9.38583514,2.13238769 Z" id="Combined-Shape" fill="#30B0D3"></path>
                    <path d="M7.64298377,3.11368056 L14.8777767,15.6447096 L7.4321245,28.5409576 C0.807959964,24.0721522 -1.28319029,15.1618024 2.81643657,8.1741576 C4.01332356,6.13411312 5.66649997,4.40265164 7.64298602,3.11368457 Z" id="Combined-Shape" fill="#84DA37"></path>
                    <path d="M9.15915524,29.5496526 L16.5490381,16.75 L31.2183777,16.75 C30.79083,24.5496922 24.4695894,30.8713797 16.5123421,31.1492529 C13.9608229,31.2383539 11.4333839,30.6858275 9.15915524,29.5496526 Z" id="Combined-Shape" fill="#EF5E3C"></path>
                </g>
            </g>
        </g>
    </g>
</svg>